<?xml version="1.0" standalone="no"?>
<!DOCTYPE svg PUBLIC "-//W3C//DTD SVG 20010904//EN"
 "http://www.w3.org/TR/2001/REC-SVG-20010904/DTD/svg10.dtd">
<svg version="1.0" xmlns="http://www.w3.org/2000/svg"
 width="547.000000pt" height="547.000000pt" viewBox="0 0 547.000000 547.000000"
 preserveAspectRatio="xMidYMid meet">
<metadata>
Created by potrace 1.11, written by Peter Selinger 2001-2013
</metadata>
<g transform="translate(0.000000,547.000000) scale(0.100000,-0.100000)"
fill="#000000" stroke="none">
<path d="M2227 5463 c-2 -1 -41 -3 -87 -4 -176 -4 -285 -38 -334 -102 -32 -41
-47 -77 -107 -252 -26 -77 -77 -225 -114 -330 -37 -104 -88 -253 -115 -330
-166 -479 -362 -1043 -400 -1150 -15 -44 -37 -107 -48 -140 -12 -33 -109 -314
-217 -625 -109 -311 -234 -673 -280 -805 -46 -132 -170 -492 -277 -800 -168
-481 -208 -609 -233 -730 -5 -25 14 -102 29 -114 6 -5 23 -12 36 -15 14 -2 45
-9 70 -14 25 -6 65 -13 90 -16 25 -3 56 -8 69 -11 129 -25 515 -26 646 -1 11
2 45 7 75 11 76 9 107 14 170 26 93 17 102 19 215 49 436 115 781 340 968 633
18 28 128 243 244 477 212 427 352 693 469 893 35 60 64 113 64 118 0 5 4 9 8
9 5 0 33 39 62 88 478 783 967 1296 1487 1556 227 113 492 189 688 196 49 2
49 2 15 10 -102 24 -456 34 -615 17 -493 -53 -998 -260 -1372 -561 -193 -156
-397 -366 -534 -553 -60 -81 -205 -246 -291 -333 -223 -224 -411 -356 -661
-465 -46 -20 -221 -65 -252 -65 l-23 0 34 98 c42 121 272 797 324 952 21 63
111 329 200 590 89 261 173 510 188 552 14 43 27 76 29 74 2 -2 60 -171 128
-376 68 -204 125 -374 128 -376 2 -3 24 21 47 53 266 351 820 619 1495 723 77
12 152 22 168 22 47 2 30 14 -65 46 -153 51 -330 91 -483 108 -52 6 -236 7
-344 1 -41 -2 -31 -25 -167 368 -53 154 -103 296 -111 315 -50 122 -122 159
-343 176 -86 6 -668 13 -673 7z"/>
<path d="M4135 2453 c-67 -17 -359 -278 -546 -488 -200 -225 -372 -550 -406
-765 -23 -153 -23 -259 3 -403 4 -21 10 -39 13 -42 4 -2 27 33 51 78 46 87
136 237 210 349 41 62 45 66 53 45 5 -12 94 -272 197 -577 103 -305 191 -563
195 -573 9 -21 47 -42 90 -50 84 -17 132 -19 400 -21 532 -4 602 16 598 174
-2 78 -28 170 -135 475 -44 127 -100 289 -125 360 -25 72 -51 144 -59 162 -8
17 -14 35 -14 39 0 5 -21 67 -46 139 -57 162 -99 282 -159 455 -25 74 -49 142
-52 150 -4 8 -7 17 -8 20 -5 21 -28 89 -35 105 -5 11 -33 89 -62 174 -40 117
-59 158 -78 172 -30 21 -58 28 -85 22z"/>
</g>
</svg>
